<svg xmlns="http://www.w3.org/2000/svg" width="2625" height="1553" xmlns:v="https://vecta.io/nano"><path d="M602.26 883.43c116.417 55.212 224.617 59.521 348.638 54.664 33.424 2.962 58.919 10.502 86.125 39.313 41.727 44.181 62.637 108.491 62.948 163.959-2.798 68.393-48.636 117.117-102.736 114.963-167.097-14.823-327.362 55.477-380.52 219.693-1.399 34.197-36.222 65.431-72.755 75.394-69.935 6.988-135.383-33.133-177.033-86.963-60.94-87.242-5.753-174.753 46.304-249.326 23.736-37.62 32.437-80.969 39.03-125.122l.457-3.082 1.559-10.801.656-4.633.436-3.089.873-6.179.21-1.483.423-2.964.212-1.482.428-2.962.432-2.961.437-2.959.221-1.479.447-2.955c6.529-42.831 15.391-84.773 38.428-121.312 26.894-26.657 66.536-49.544 104.779-38.235zm-313.352 138.132c47.829 27.818 67.231 116.447 41.93 164.332-58.522 100.342-200.194 93.397-273.715 2.737-36.748-45.308-36.937-100.66-11.636-148.544 43.371-82.113 178.032-58.417 243.422-18.524zm601.354-562.047c57.55 44.837 80.337 120.866 106.223 183.984 23.16 56.443 26.271 118.625-6.737 171.138-53.646 53.277-141.117 48.018-195.567-9.73-68.95-82.863-100.05-209.852-57.781-301.168 17.176-43.373 93.225-76.128 153.862-44.224zm-816.667-1.087c71.986 14.433 118.737 77.033 152.682 135.828 51.587 70.976 141.605 153.391 102.185 232.115-25.235 48.166-141.819 48.313-199.634 3.3C58.208 780.852 25.642 687.696 5.868 598.321-7.314 538.739 1.645 444.005 73.596 458.428zm224.225-215.83c123.577 29.648 245.781 93.755 300.95 207.755 25.741 53.176 21.504 111.024-13.584 142.473-38.18 44.487-81.241 80.57-148.584 74.594-33.678-2.999-37.142-45.887-46.86-62.719-13.517-115.635-50.981-217.414-109.291-318.409-5.734-9.931.256-18.818 6.774-27.112l.664-.841.371-.467.74-.93c3.941-4.95 7.705-9.697 8.82-14.342zM2127.26 641.43c116.417 55.212 224.617 59.521 348.638 54.664 33.424 2.962 58.919 10.502 86.125 39.313 41.727 44.181 62.637 108.491 62.948 163.959-2.798 68.393-48.636 117.117-102.736 114.963-167.097-14.823-327.362 55.477-380.52 219.693-1.399 34.197-36.222 65.431-72.755 75.394-69.935 6.988-135.383-33.133-177.033-86.963-60.94-87.242-5.753-174.753 46.304-249.326 23.736-37.62 32.437-80.969 39.03-125.122l.457-3.082 1.559-10.801.656-4.633.436-3.089.873-6.179.21-1.483.423-2.964.212-1.482.428-2.963.432-2.961.437-2.959.221-1.479.447-2.955c6.529-42.831 15.391-84.773 38.428-121.312 26.894-26.657 66.536-49.544 104.779-38.235zm-313.352 138.132c47.829 27.818 67.231 116.447 41.93 164.332-58.522 100.342-200.194 93.397-273.715 2.737-36.748-45.307-36.937-100.66-11.636-148.544 43.371-82.113 178.032-58.417 243.422-18.524zm601.354-562.047c57.55 44.837 80.337 120.866 106.223 183.984 23.16 56.443 26.271 118.625-6.737 171.138-53.646 53.277-141.117 48.018-195.567-9.73-68.95-82.863-100.05-209.852-57.781-301.168 17.176-43.373 93.225-76.128 153.862-44.224zm-816.667-1.087c71.986 14.433 118.737 77.033 152.682 135.828 51.587 70.976 141.605 153.391 102.185 232.115-25.235 48.166-141.819 48.313-199.634 3.3-70.621-48.819-103.187-141.975-122.961-231.349-13.182-59.583-4.224-154.316 67.727-139.893zM1822.821.598c123.577 29.648 245.781 93.755 300.95 207.755 25.741 53.176 21.504 111.024-13.584 142.473-38.18 44.487-81.241 80.57-148.584 74.594-33.678-2.999-37.142-45.887-46.86-62.719-13.517-115.635-50.981-217.414-109.291-318.409-5.734-9.931.256-18.818 6.774-27.112l.664-.841.371-.467.74-.93c3.941-4.95 7.705-9.697 8.82-14.342z" fill="#fff"/></svg>